<?xml version="1.0" encoding="utf-8"?>
<!-- Generator: Adobe Illustrator 17.0.1, SVG Export Plug-In . SVG Version: 6.00 Build 0)  -->
<!DOCTYPE svg PUBLIC "-//W3C//DTD SVG 1.1//EN" "http://www.w3.org/Graphics/SVG/1.1/DTD/svg11.dtd">
<svg version="1.1" id="Layer_1" xmlns="http://www.w3.org/2000/svg" xmlns:xlink="http://www.w3.org/1999/xlink" x="0px" y="0px"
	 width="1080px" height="256px" viewBox="0 0 1080 256" enable-background="new 0 0 1080 256" xml:space="preserve">
<g>
	<g>
		<path fill="#FFFFFF" d="M1020.94,31.906c-2.305,1.836-11.733,18.401-11.968,19.326c-0.132,0.532-3.659-1.559-10.312-3.591
			c0,0-6.595-2.59-19.367-3.311c-8.215-0.464-35.856,0.864-56.901,20.167c-24.34,22.325-28.907,58.652-20.167,85.199
			c0,0,12.276,36.124,71.781,61.89c6.902,2.989,6.046,1.843,3.216,0c-13.114-7.592-26.683-23.695-33.82-37.961
			c-7.13-14.266-5.977-29.906,2.761-45.553c8.745-15.647,27.38-28.988,44.635-43.945c17.255-14.95,23.239-25.075,27.38-34.738
			C1022.321,39.726,1021.396,34.432,1020.94,31.906z M961.349,90.034c-6.778,0-12.265-5.494-12.265-12.272
			s5.487-12.272,12.265-12.272c6.778,0,12.272,5.494,12.272,12.272S968.126,90.034,961.349,90.034z"/>
		<path fill="#FFFFFF" d="M974.465,196.401c-3.911-7.132-14.034-26.918-12.193-42.332c1.841-15.414,16.795-33.36,21.396-37.731
			s19.556-22.086,27.838-36.811c8.282-14.724,8.282-14.724,8.282-14.724c5.656,4.06,20.055,15.552,26.918,36.12
			c8.108,24.299,0.259,44.965-2.991,53.145c-0.94,2.365-16.339,33.505-38.49,42.332c-12.124,4.831-19.026,3.451-19.026,3.451
			c4.026-3.901,9.532-9.492,15.668-16.594c7.598-8.792,12.017-13.907,15.834-20.826c8.854-16.052,9.712-33.204,8.07-33.67
			c-1.923-0.546-5.224,22.374-23.007,43.943C993.122,184.398,982.422,191.816,974.465,196.401z"/>
	</g>
	<text transform="matrix(1 0 0 1 29.7393 97.7704)"><tspan x="0" y="0" fill="#FFFFFF" font-family="'Almarai-ExtraBold'" font-size="70.7006">تحدم ةماسا روتكدلا ةدايع</tspan><tspan x="5.127" y="99.777" fill="#FFFFFF" font-family="'Almarai-Regular'" font-size="67.0375">ةنمسلا جلع و ةيجلعلا ةيذغتلل</tspan></text>
</g>
</svg>
