<?xml version="1.0" standalone="no"?>
<!DOCTYPE svg PUBLIC "-//W3C//DTD SVG 1.0//EN" "http://www.w3.org/TR/2001/REC-SVG-20010904/DTD/svg10.dtd">
<svg xmlns="http://www.w3.org/2000/svg" xmlns:xlink="http://www.w3.org/1999/xlink" id="body_1" width="1080" height="256">

<g transform="matrix(1 0 0 1 0 0)">
	<g>
	</g>
    <path d="M1020.94 31.906C 1018.635 33.742 1009.20703 50.307 1008.972 51.232002C 1008.83997 51.764004 1005.313 49.673004 998.66 47.641003C 998.66 47.641003 992.065 45.051003 979.29297 44.33C 971.07794 43.866 943.43695 45.194 922.39197 64.497C 898.05194 86.82201 893.485 123.149 902.225 149.696C 902.225 149.696 914.501 185.82 974.006 211.586C 980.90796 214.575 980.052 213.429 977.222 211.586C 964.108 203.994 950.539 187.89099 943.402 173.625C 936.272 159.359 937.425 143.719 946.16296 128.07199C 954.90796 112.42499 973.54297 99.08399 990.798 84.12699C 1008.053 69.176994 1014.037 59.05199 1018.178 49.388992C 1022.321 39.726 1021.396 34.432 1020.94 31.906zM961.349 90.034C 954.571 90.034 949.084 84.53999 949.084 77.76199C 949.084 70.98399 954.571 65.48999 961.349 65.48999C 968.127 65.48999 973.621 70.98399 973.621 77.76199C 973.621 84.53999 968.126 90.034 961.349 90.034z" stroke="none" fill="#FFFFFF" fill-rule="nonzero" />
	<g>
	</g>
    <path d="M974.465 196.401C 970.554 189.269 960.431 169.483 962.27203 154.069C 964.11304 138.655 979.067 120.709 983.668 116.338C 988.26904 111.966995 1003.224 94.252 1011.50604 79.52699C 1019.788 64.80299 1019.788 64.80299 1019.788 64.80299C 1025.444 68.86299 1039.843 80.354996 1046.706 100.92299C 1054.8141 125.221985 1046.9651 145.88799 1043.7151 154.068C 1042.7751 156.433 1027.3761 187.573 1005.2251 196.4C 993.1011 201.23099 986.1991 199.851 986.1991 199.851C 990.2251 195.95 995.7311 190.359 1001.8671 183.257C 1009.46515 174.465 1013.88416 169.35 1017.7011 162.431C 1026.555 146.379 1027.4131 129.227 1025.7711 128.761C 1023.84814 128.215 1020.5471 151.13501 1002.7641 172.70401C 993.122 184.398 982.422 191.816 974.465 196.401z" stroke="none" fill="#FFFFFF" fill-rule="nonzero" />
	<g transform="matrix(1 0 0 1 29.7393 97.7704)">
		<text x="0" y="0" style="fill:#FFFFFF;font-family:Times New Roman;" font-size="70.7006">

		</text>
	</g>
	<g transform="matrix(1 0 0 1 29.7393 97.7704)">
		<text x="0" y="0" style="fill:#FFFFFF;font-family:Times New Roman;" font-size="70.7006">
تحدم ةماسا روتكدلا ةدايع
		</text>
	</g>
	<g transform="matrix(1 0 0 1 29.7393 97.7704)">
		<text x="0" y="0" style="fill:#FFFFFF;font-family:Times New Roman;" font-size="67.0375">

		</text>
	</g>
	<g transform="matrix(1 0 0 1 29.7393 97.7704)">
		<text x="5.127" y="99.777" style="fill:#FFFFFF;font-family:Times New Roman;" font-size="67.0375">
ةنمسلا جلع و ةيجلعلا ةيذغتلل
		</text>
	</g>
</g>
</svg>